<svg xmlns="http://www.w3.org/2000/svg" width="195.061" height="175" viewBox="0 0 195.061 175">
  <g id="Group_148" data-name="Group 148" transform="translate(-1061 -1836)">
    <g id="Path_42" data-name="Path 42" transform="translate(1088 1836)" fill="none">
      <path d="M87.5,0c48.325,0,80.561,53.9,80.561,102.222S135.825,175,87.5,175a87.5,87.5,0,0,1,0-175Z" stroke="none"/>
      <path d="M 87.5 1 C 81.63043212890625 1 75.76483917236328 1.591278076171875 70.066162109375 2.75738525390625 C 64.51284027099609 3.893768310546875 59.05040740966797 5.589385986328125 53.83058929443359 7.79718017578125 C 48.70534515380859 9.964996337890625 43.76193237304688 12.64817810058594 39.13772583007812 15.77224731445312 C 34.55718994140625 18.86679077148438 30.24981689453125 22.42070007324219 26.33525085449219 26.33525085449219 C 22.42070007324219 30.24981689453125 18.86679077148438 34.55717468261719 15.77224731445312 39.13772583007812 C 12.64817810058594 43.76193237304688 9.964996337890625 48.70533752441406 7.79718017578125 53.83058929443359 C 5.589385986328125 59.05040740966797 3.893768310546875 64.51284027099609 2.75738525390625 70.066162109375 C 1.591278076171875 75.76483917236328 1 81.63043212890625 1 87.5 C 1 93.36956787109375 1.591278076171875 99.23516082763672 2.75738525390625 104.9338150024414 C 3.893768310546875 110.4871597290039 5.589385986328125 115.949592590332 7.79718017578125 121.1693878173828 C 9.964996337890625 126.2946624755859 12.64817810058594 131.2380676269531 15.77224731445312 135.8622741699219 C 18.86679077148438 140.4428100585938 22.42070007324219 144.7501831054688 26.33525085449219 148.6647338867188 C 30.24981689453125 152.5792999267578 34.55718994140625 156.1332092285156 39.13772583007812 159.2277526855469 C 43.76193237304688 162.3518218994141 48.70534515380859 165.0350036621094 53.83058929443359 167.2028198242188 C 59.05040740966797 169.4105834960938 64.51284027099609 171.1062316894531 70.066162109375 172.2426147460938 C 75.76483917236328 173.4087219238281 81.63043212890625 174 87.5 174 C 99.49816131591797 174 110.4927062988281 172.4755706787109 120.1782531738281 169.4690704345703 C 129.9436340332031 166.4377899169922 138.3787689208984 161.8978424072266 145.2493896484375 155.9753570556641 C 152.2755889892578 149.9187469482422 157.6911315917969 142.3895263671875 161.3455505371094 133.5968017578125 C 165.1379852294922 124.4719314575195 167.0609130859375 113.9159088134766 167.0609130859375 102.2219314575195 C 167.0609130859375 96.28916168212891 166.5673370361328 90.19643402099609 165.5939636230469 84.11304473876953 C 164.6287078857422 78.08068084716797 163.189453125 72.04256439208984 161.3162078857422 66.16641235351562 C 159.4362335205078 60.26918029785156 157.1150207519531 54.52259063720703 154.4170989990234 49.08627319335938 C 151.6778717041016 43.56675720214844 148.5403594970703 38.34791564941406 145.0917358398438 33.57475280761719 C 141.5550689697266 28.67977905273438 137.6686096191406 24.22331237792969 133.5403442382812 20.32916259765625 C 129.2735748291016 16.30441284179688 124.7063674926758 12.8416748046875 119.9655685424805 10.03715515136719 C 109.8287734985352 4.040542602539062 98.90577697753906 1 87.5 1 M 87.5 0 C 135.8249053955078 0 168.0609130859375 53.89700317382812 168.0609130859375 102.2219314575195 C 168.0609130859375 150.5468444824219 135.8249053955078 175 87.5 175 C 39.17506408691406 175 0 135.8249053955078 0 87.5 C 0 39.17506408691406 39.17506408691406 0 87.5 0 Z" stroke="none" fill="#70bdc9"/>
    </g>
    <g id="Path_41" data-name="Path 41" transform="translate(1061 1836)" fill="none">
      <path d="M83.735,16.367C132.06,16.367,175,39.175,175,87.5a87.5,87.5,0,0,1-175,0C0,39.175,35.41,16.367,83.735,16.367Z" stroke="none"/>
      <path d="M 83.73461151123047 17.3665771484375 C 71.63718414306641 17.3665771484375 60.46856689453125 18.80670166015625 50.53902435302734 21.64692687988281 C 40.38571166992188 24.55117797851562 31.57936096191406 28.90811157226562 24.36463928222656 34.59672546386719 C 16.88699340820312 40.49259948730469 11.1112060546875 47.832763671875 7.197677612304688 56.41328430175781 C 3.085205078125 65.43003845214844 1 75.88910675048828 1 87.49999237060547 C 1 93.36956024169922 1.591278076171875 99.23515319824219 2.75738525390625 104.9338302612305 C 3.893768310546875 110.4871520996094 5.589385986328125 115.9495849609375 7.79718017578125 121.1694030761719 C 9.964996337890625 126.2946548461914 12.64817810058594 131.2380676269531 15.77224731445312 135.8622741699219 C 18.86679077148438 140.4428100585938 22.42070007324219 144.7501831054688 26.33525085449219 148.6647338867188 C 30.24981689453125 152.5792846679688 34.55717468261719 156.1331939697266 39.13772583007812 159.2277374267578 C 43.76193237304688 162.351806640625 48.70533752441406 165.0349884033203 53.83058929443359 167.2028198242188 C 59.05040740966797 169.4106140136719 64.51284027099609 171.1062164306641 70.066162109375 172.2426147460938 C 75.76483917236328 173.4087219238281 81.63043212890625 174 87.5 174 C 93.36956787109375 174 99.23516082763672 173.4087219238281 104.9338150024414 172.2426147460938 C 110.4871597290039 171.1062164306641 115.949592590332 169.4106140136719 121.1693878173828 167.2028198242188 C 126.2946624755859 165.0349884033203 131.2380676269531 162.351806640625 135.8622741699219 159.2277374267578 C 140.4428100585938 156.1331939697266 144.7501831054688 152.5792846679688 148.6647338867188 148.6647338867188 C 152.5792999267578 144.7501831054688 156.1332092285156 140.4428100585938 159.2277526855469 135.8622741699219 C 162.3518218994141 131.2380676269531 165.0350036621094 126.2946548461914 167.2028198242188 121.1694030761719 C 169.4105834960938 115.9495849609375 171.1062316894531 110.4871520996094 172.2426147460938 104.9338302612305 C 173.4087219238281 99.23515319824219 174 93.36956024169922 174 87.49999237060547 C 174 76.01947021484375 171.5283660888672 65.57951354980469 166.6537780761719 56.47012329101562 C 162.0987243652344 47.95793151855469 155.4578857421875 40.61007690429688 146.9157104492188 34.63067626953125 C 138.8157653808594 28.96086120605469 129.1287078857422 24.59405517578125 118.1236114501953 21.65156555175781 C 107.4895477294922 18.80827331542969 95.91941070556641 17.3665771484375 83.73461151123047 17.3665771484375 M 83.73461151123047 16.3665771484375 C 132.0595397949219 16.3665771484375 175 39.17507934570312 175 87.49999237060547 C 175 135.8249206542969 135.8249053955078 175 87.5 175 C 39.17506408691406 175 0 135.8249206542969 0 87.49999237060547 C 0 39.17507934570312 35.40969848632812 16.3665771484375 83.73461151123047 16.3665771484375 Z" stroke="none" fill="#70bdc9"/>
    </g>
  </g>
</svg>
