<svg xmlns="http://www.w3.org/2000/svg" width="234.268" height="180.633" viewBox="0 0 234.268 180.633">
  <g id="Intersection_2" data-name="Intersection 2" transform="translate(-20.732 -52.033)" fill="#fff">
    <path d="M 254.4997253417969 232.1661987304688 L 64.07598876953125 232.1661987304688 C 65.55006408691406 231.8076477050781 66.92939758300781 231.3531799316406 68.20789337158203 230.8039398193359 C 71.65316009521484 229.3237915039062 74.48877716064453 227.1037902832031 76.63592529296875 224.2056121826172 C 80.39951324462891 219.1256103515625 82.22901153564453 211.8166198730469 82.22901153564453 201.8609924316406 C 82.22901153564453 189.0841217041016 82.03620910644531 182.88818359375 81.93016815185547 180.4474487304688 L 81.97921752929688 180.4964904785156 L 81.86265563964844 179.1318511962891 C 81.62203979492188 176.3339691162109 81.50001525878906 173.4857025146484 81.50001525878906 170.6661071777344 C 81.50001525878906 164.0506134033203 82.16645050048828 157.4394073486328 83.48086547851562 151.0161437988281 C 84.76180267333984 144.7563781738281 86.67315673828125 138.5990600585938 89.16180419921875 132.7152252197266 C 91.60533905029297 126.9381103515625 94.62977600097656 121.3660507202148 98.15113067626953 116.1537857055664 C 101.6390991210938 110.9909362792969 105.6448364257812 106.1359939575195 110.0570449829102 101.7238159179688 C 114.4692153930664 97.3116455078125 119.32421875 93.30593872070312 124.4870986938477 89.8179931640625 C 129.6994018554688 86.29663848876953 135.2715454101562 83.27220153808594 141.0487213134766 80.82869720458984 C 146.9326019287109 78.34005737304688 153.0899810791016 76.42870330810547 159.3498382568359 75.14775848388672 C 165.773193359375 73.83335113525391 172.3844757080078 73.16690826416016 179.0001068115234 73.16690826416016 C 180.0126342773438 73.16690826416016 181.0467224121094 73.18287658691406 182.0735778808594 73.21437835693359 L 182.6944274902344 73.23343658447266 L 182.68701171875 73.19374084472656 C 186.7187805175781 73.24588012695312 209.880126953125 73.53411102294922 228.9311828613281 73.53411102294922 C 233.1051330566406 73.53411102294922 236.8343353271484 73.01505279541016 240.0151824951172 71.99137878417969 C 243.0615692138672 71.01099395751953 245.7041015625 69.53605651855469 247.8694610595703 67.60758209228516 C 249.9136962890625 65.78693389892578 251.5986328125 63.50249481201172 252.8774871826172 60.81769943237305 C 253.5051727294922 59.49990463256836 254.047119140625 58.05957412719727 254.4997253417969 56.50859832763672 L 254.4997253417969 232.1661987304688 Z" stroke="none"/>
    <path d="M 253.9997253417969 231.6661987304688 L 253.9997253417969 59.48793029785156 C 250.0697479248047 69.25938415527344 241.8055419921875 74.03411102294922 228.9311828613281 74.03411102294922 C 210.6797943115234 74.03411102294922 188.6575012207031 73.76961517333984 183.2904815673828 73.70151519775391 L 183.2999572753906 73.75222778320312 L 182.0582427978516 73.71414184570312 C 181.0364532470703 73.68279266357422 180.0075378417969 73.66690826416016 179.0001068115234 73.66690826416016 C 172.4180755615234 73.66690826416016 165.8405151367188 74.32993316650391 159.4500732421875 75.63761138916016 C 153.2225341796875 76.91193389892578 147.0969848632812 78.81340789794922 141.2434844970703 81.28919982910156 C 135.4960479736328 83.72013854980469 129.9525756835938 86.72902679443359 124.7670135498047 90.23229217529297 C 119.630485534668 93.70243835449219 114.8002777099609 97.68769836425781 110.4105682373047 102.0773773193359 C 106.0208969116211 106.4670257568359 102.0355987548828 111.2972030639648 98.56545257568359 116.4337005615234 C 95.06215667724609 121.6192016601562 92.05327606201172 127.1626434326172 89.62230682373047 132.9100189208984 C 87.14651489257812 138.7634429931641 85.24504089355469 144.8889312744141 83.97071838378906 151.1163787841797 C 82.66304016113281 157.5067291259766 82.00001525878906 164.0841979980469 82.00001525878906 170.6661071777344 C 82.00001525878906 173.471435546875 82.12142181396484 176.3053131103516 82.36083221435547 179.0889892578125 L 82.59483337402344 181.8192291259766 L 82.48196411132812 181.7063598632812 C 82.58934783935547 184.7460632324219 82.72901153564453 190.8216705322266 82.72901153564453 201.8609924316406 C 82.72901153564453 211.9276733398438 80.86736297607422 219.3340301513672 77.03768920898438 224.5032653808594 C 74.83721923828125 227.4734039306641 71.93283843994141 229.7478179931641 68.40525054931641 231.2633209228516 C 68.07837677001953 231.4037475585938 67.74537658691406 231.5379791259766 67.40584564208984 231.6661987304688 L 253.9997253417969 231.6661987304688 M 254.8979797363281 232.6661987304688 L 54.93151092529297 232.6661987304688 C 76.00859832763672 232.6661987304688 81.72901153564453 219.5792846679688 81.72901153564453 201.8609924316406 C 81.72901153564453 184.1427001953125 81.36360168457031 179.1737823486328 81.36360168457031 179.1737823486328 L 81.36450958251953 179.1746978759766 C 81.12330627441406 176.3702850341797 81.00001525878906 173.5335235595703 81.00001525878906 170.6661071777344 C 81.00001525878906 116.5427856445312 124.8758926391602 72.66690826416016 179.0001068115234 72.66690826416016 C 180.0342254638672 72.66690826416016 181.06201171875 72.68311309814453 182.0888977050781 72.71461486816406 L 182.0835113525391 72.685791015625 C 182.0835113525391 72.685791015625 207.8540954589844 73.03411102294922 228.9311828613281 73.03411102294922 C 245.88525390625 73.03411102294922 252.9028625488281 64.56796264648438 254.9997253417969 52.03319931030273 L 254.9997253417969 232.5416107177734 C 254.9648590087891 232.5843811035156 254.9328918457031 232.6234893798828 254.8979797363281 232.6661987304688 Z M 54.93151092529297 232.6661987304688 C 33.85439300537109 232.6661987304688 20.73151206970215 232.6661987304688 20.73151206970215 232.6661987304688 L 54.93151092529297 232.6661987304688 Z" stroke="none" fill="#fff"/>
  </g>
</svg>
